<?xml version="1.0" encoding="utf-8"?>
<!-- Generator: Adobe Illustrator 26.0.1, SVG Export Plug-In . SVG Version: 6.00 Build 0)  -->
<svg version="1.1" id="Layer_1" xmlns="http://www.w3.org/2000/svg" xmlns:xlink="http://www.w3.org/1999/xlink" x="0px" y="0px"
	 viewBox="0 0 200 200" style="enable-background:new 0 0 200 200;" xml:space="preserve">
<style type="text/css">
	.st0{fill:url(#SVGID_1_);}
	.st1{fill:url(#SVGID_00000061437680041461134920000004425796489747709364_);}
	.st2{fill:url(#SVGID_00000043455677248414686180000011429464820221084092_);}
	.st3{fill:url(#SVGID_00000075160231621938255920000011909023399249792697_);}
</style>
<g>
	<g>
		<g>
			<g>
				<linearGradient id="SVGID_1_" gradientUnits="userSpaceOnUse" x1="95.234" y1="105.1425" x2="162.3188" y2="105.1425">
					<stop  offset="0" style="stop-color:#2176FF"/>
					<stop  offset="1" style="stop-color:#42CDB2"/>
				</linearGradient>
				<path class="st0" d="M110.83,129.09c-1.34-2.29-0.55-5.22,1.74-6.54l0,0c2.27-1.31,5.2-0.53,6.51,1.76l0,0
					c1.32,2.27,0.53,5.2-1.74,6.51l0,0c-0.76,0.45-1.57,0.64-2.38,0.64l0,0C113.32,131.47,111.7,130.62,110.83,129.09z
					 M124.65,121.11c-1.32-2.29-0.53-5.22,1.74-6.54l0,0c2.29-1.32,5.2-0.53,6.54,1.76l0,0c1.32,2.27,0.53,5.2-1.76,6.51l0,0
					c-0.74,0.45-1.57,0.64-2.38,0.64l0,0C127.13,123.49,125.52,122.64,124.65,121.11z M138.47,113.13c-1.32-2.29-0.53-5.2,1.74-6.54
					l0,0c2.29-1.31,5.22-0.53,6.54,1.76l0,0c1.32,2.27,0.53,5.2-1.76,6.52l0,0c-0.74,0.45-1.57,0.64-2.38,0.64l0,0
					C140.95,115.51,139.36,114.66,138.47,113.13z M152.77,83.59c0-2.63,2.14-4.77,4.77-4.77l0,0c2.65,0,4.77,2.14,4.77,4.77l0,0
					c0,2.63-2.12,4.77-4.77,4.77l0,0C154.91,88.37,152.77,86.22,152.77,83.59z"/>
			</g>
		</g>
		<g>
			
				<linearGradient id="SVGID_00000064324460575158565020000016512586549550913188_" gradientUnits="userSpaceOnUse" x1="38.2214" y1="68.8926" x2="161.7953" y2="68.8926">
				<stop  offset="0" style="stop-color:#2176FF"/>
				<stop  offset="1" style="stop-color:#42CDB2"/>
			</linearGradient>
			<path style="fill:url(#SVGID_00000064324460575158565020000016512586549550913188_);" d="M100.01,135.85
				c-4.96,0-9.86-1.31-14.15-3.79l-33.48-19.33c-8.73-5.04-14.15-14.43-14.15-24.51V49.56c0-10.08,5.42-19.47,14.15-24.52
				L85.86,5.71c8.73-5.04,19.58-5.04,28.31,0l33.48,19.33c8.73,5.04,14.15,14.43,14.15,24.52v19.33c0,2.34-1.9,4.24-4.24,4.24
				c-2.34,0-4.24-1.9-4.24-4.24V49.56c0-7.06-3.8-13.63-9.91-17.16l-33.48-19.33c-6.11-3.53-13.71-3.53-19.82,0L56.62,32.39
				c-6.11,3.53-9.91,10.11-9.91,17.16v38.66c0,7.06,3.8,13.63,9.91,17.16l33.48,19.33c3.01,1.74,6.44,2.66,9.91,2.66
				c2.34,0,4.24,1.9,4.24,4.24C104.25,133.95,102.35,135.85,100.01,135.85z"/>
		</g>
		<g>
			
				<linearGradient id="SVGID_00000012461611014401842280000002484672577642130062_" gradientUnits="userSpaceOnUse" x1="38.2214" y1="131.1072" x2="161.7953" y2="131.1072">
				<stop  offset="0" style="stop-color:#1A0046"/>
				<stop  offset="1" style="stop-color:#3A3CE6"/>
			</linearGradient>
			<path style="fill:url(#SVGID_00000012461611014401842280000002484672577642130062_);" d="M100.01,198.07
				c-4.9,0-9.79-1.26-14.15-3.78l-33.48-19.33c-8.73-5.04-14.15-14.43-14.15-24.51v-18.83c0-2.34,1.9-4.24,4.24-4.24
				c2.34,0,4.24,1.9,4.24,4.24v18.83c0,7.06,3.8,13.63,9.91,17.16l33.48,19.33c6.11,3.53,13.71,3.53,19.82,0l33.48-19.33
				c6.11-3.53,9.91-10.11,9.91-17.16v-38.66c0-7.06-3.8-13.63-9.91-17.16l-33.48-19.33c-3.01-1.74-6.44-2.66-9.91-2.66
				c-2.34,0-4.24-1.9-4.24-4.24s1.9-4.24,4.24-4.24c4.96,0,9.86,1.31,14.15,3.79l33.48,19.33c8.73,5.04,14.15,14.43,14.15,24.52
				v38.66c0,10.08-5.42,19.47-14.15,24.51l-33.48,19.33C109.8,196.81,104.9,198.07,100.01,198.07z"/>
		</g>
		<g>
			<g>
				
					<linearGradient id="SVGID_00000029763508037924310490000004033845412173013139_" gradientUnits="userSpaceOnUse" x1="37.6813" y1="95.0824" x2="104.7855" y2="95.0824">
					<stop  offset="0" style="stop-color:#3A3CE6"/>
					<stop  offset="1" style="stop-color:#1A0046"/>
				</linearGradient>
				<path style="fill:url(#SVGID_00000029763508037924310490000004033845412173013139_);" d="M37.68,116.83
					c0-2.65,2.14-4.77,4.77-4.77l0,0c2.65,0,4.8,2.12,4.8,4.77l0,0c0,2.63-2.14,4.77-4.8,4.77l0,0
					C39.83,121.6,37.68,119.46,37.68,116.83z M53.07,91.76c-1.32-2.27-0.53-5.2,1.74-6.52l0,0c2.29-1.31,5.2-0.53,6.54,1.74l0,0
					c1.32,2.29,0.53,5.22-1.76,6.54l0,0c-0.74,0.42-1.57,0.64-2.38,0.64l0,0C55.55,94.16,53.96,93.31,53.07,91.76z M66.97,83.74
					c-1.34-2.27-0.55-5.2,1.74-6.51l0,0c2.27-1.32,5.2-0.53,6.51,1.74l0,0c1.32,2.29,0.55,5.22-1.74,6.54l0,0
					c-0.76,0.42-1.57,0.64-2.38,0.64l0,0C69.45,86.14,67.84,85.29,66.97,83.74z M80.85,75.72c-1.32-2.27-0.53-5.2,1.74-6.51l0,0
					c2.29-1.32,5.22-0.53,6.54,1.74l0,0c1.31,2.29,0.53,5.22-1.74,6.54l0,0c-0.76,0.42-1.59,0.64-2.4,0.64l0,0
					C83.33,78.12,81.74,77.27,80.85,75.72z"/>
			</g>
		</g>
	</g>
</g>
</svg>
