<svg width="48" height="17" viewBox="0 0 48 17" fill="none" xmlns="http://www.w3.org/2000/svg">
<path d="M2.0966 12.7935C2.21812 13.4292 2.51145 13.9147 2.97519 14.2471C3.43893 14.581 4.06609 14.7465 4.85808 14.7465C5.65006 14.7465 6.30237 14.5879 6.82058 14.2694C7.3374 13.9508 7.59581 13.5419 7.59581 13.0425C7.59581 12.6335 7.46311 12.3122 7.19632 12.0771C6.92953 11.842 6.59989 11.664 6.2046 11.5429C5.8093 11.4219 5.26874 11.3009 4.58431 11.1799C3.68616 11.0282 2.95703 10.8585 2.39412 10.668C1.83121 10.4788 1.34791 10.1686 0.945634 9.73596C0.541958 9.30474 0.34082 8.69546 0.34082 7.90673C0.34082 7.25572 0.534973 6.66453 0.923284 6.13454C1.3116 5.60455 1.84657 5.19141 2.531 4.8965C3.21544 4.6016 3.99066 4.45276 4.85808 4.45276C6.13615 4.45276 7.18934 4.74488 8.01764 5.32773C8.84595 5.91058 9.34461 6.70208 9.51222 7.70225L7.41283 8.15712C7.30667 7.52141 7.0329 7.03315 6.59151 6.69235C6.15012 6.35154 5.57184 6.18183 4.85808 6.18183C4.14431 6.18183 3.5842 6.33346 3.13582 6.6367C2.68745 6.93995 2.46256 7.33362 2.46256 7.81771C2.46256 8.19607 2.58828 8.49515 2.8383 8.71493C3.08973 8.93472 3.4054 9.09747 3.78533 9.20319C4.16527 9.30891 4.69046 9.42298 5.35953 9.544C6.27164 9.71092 7.01754 9.89315 7.59581 10.0893C8.17409 10.2868 8.66855 10.6151 9.07921 11.0769C9.48987 11.5388 9.6952 12.1786 9.6952 12.9966C9.6952 13.6476 9.48149 14.2388 9.05686 14.7688C8.63084 15.2988 8.04977 15.7161 7.31226 16.0179C6.57475 16.3212 5.75622 16.4728 4.85948 16.4728C3.96273 16.4728 3.15258 16.3407 2.47513 16.075C1.79768 15.8107 1.24735 15.4309 0.82132 14.9385C0.395296 14.4461 0.121522 13.8743 0 13.2233L2.09939 12.7921L2.0966 12.7935Z" fill="#171454"/>
<path d="M13.1836 11.1575V9.47571H21.7851L21.2837 10.1351C21.2529 9.42285 21.0672 8.77184 20.725 8.18065C20.3827 7.58945 19.919 7.12762 19.3337 6.79516C18.7485 6.4627 18.0906 6.29578 17.3601 6.29578C16.6295 6.29578 15.9605 6.478 15.3529 6.84107C14.7439 7.20413 14.2689 7.70769 13.9267 8.35175C13.5845 8.9958 13.4141 9.70385 13.4141 10.4759C13.4141 11.2479 13.5887 11.9532 13.9393 12.5889C14.2885 13.2246 14.7788 13.7282 15.4115 14.0996C16.0429 14.471 16.7455 14.656 17.5221 14.656C18.3434 14.656 19.0767 14.4557 19.7234 14.0537C20.3702 13.653 20.8604 13.1036 21.1943 12.4067L22.9738 13.1787C22.4724 14.1788 21.7418 14.9773 20.7836 15.5755C19.8254 16.1736 18.7219 16.4727 17.476 16.4727C16.3348 16.4727 15.297 16.2112 14.3625 15.6895C13.4267 15.1665 12.6892 14.4473 12.15 13.5306C11.6094 12.6139 11.3398 11.5957 11.3398 10.4745C11.3398 9.3533 11.6024 8.33505 12.1276 7.41835C12.6528 6.50165 13.375 5.77831 14.2955 5.24832C15.216 4.71833 16.2384 4.45264 17.3643 4.45264C18.5655 4.45264 19.6452 4.74754 20.6034 5.33874C21.5616 5.92993 22.2838 6.73952 22.7713 7.77029C23.2574 8.80106 23.4403 9.9292 23.3188 11.1561H13.1892L13.1836 11.1575Z" fill="#171454"/>
<path d="M25.71 16.246V4.68219H27.8094V7.38639L27.4895 6.99968C27.7786 6.40848 28.1781 5.90214 28.6879 5.47787C29.1978 5.0536 29.7719 4.7587 30.4102 4.59177C31.0485 4.42485 31.726 4.41789 32.4412 4.56952V6.56845C31.6045 6.37232 30.8292 6.37927 30.1141 6.59071C29.3989 6.80354 28.836 7.1819 28.4253 7.7272C28.0147 8.27249 27.8094 8.9235 27.8094 9.68162V16.2474H25.71V16.246Z" fill="#171454"/>
<path d="M32.8955 13.2706C32.8955 12.18 33.2866 11.3509 34.0702 10.7834C34.8538 10.2158 35.8609 9.87085 37.0929 9.74982L39.4884 9.49943C39.9452 9.45353 40.2832 9.33251 40.5039 9.13637C40.7246 8.94023 40.8349 8.65229 40.8349 8.27253C40.8349 7.63682 40.6031 7.13604 40.1393 6.77298C39.6756 6.40992 39.0708 6.22769 38.3249 6.22769C37.579 6.22769 36.9141 6.41687 36.3749 6.79524C35.8344 7.1736 35.481 7.7495 35.3148 8.52153L33.2391 7.99849C33.3914 7.27098 33.707 6.64361 34.1861 6.11223C34.6653 5.58224 35.2589 5.17327 35.9657 4.88533C36.6725 4.59738 37.4603 4.4541 38.3263 4.4541C39.6951 4.4541 40.8056 4.81021 41.6576 5.52243C42.5097 6.23464 42.9357 7.24872 42.9357 8.56743V16.2474H40.8363V13.9522L41.064 14.0203C40.6073 14.7924 39.9955 15.3947 39.2272 15.8273C38.459 16.2585 37.5957 16.4742 36.6375 16.4742C35.907 16.4742 35.2603 16.3448 34.6988 16.0874C34.1359 15.8301 33.6945 15.4545 33.376 14.9621C33.0561 14.4697 32.8969 13.9063 32.8969 13.2692L32.8955 13.2706ZM34.9949 13.1342C34.9949 13.6336 35.1849 14.0287 35.5648 14.3152C35.9447 14.6032 36.4462 14.7465 37.0705 14.7465C37.7703 14.7465 38.4045 14.5795 38.9758 14.2471C39.5457 13.9146 39.9982 13.4751 40.3335 12.9298C40.6673 12.3845 40.8349 11.8086 40.8349 11.2035V10.2715L41.0626 10.3396C40.9565 10.5817 40.7805 10.7569 40.5374 10.8627C40.2944 10.9684 39.913 11.0518 39.3962 11.1131L37.0915 11.3857C36.4532 11.4622 35.9433 11.6472 35.5634 11.9421C35.1835 12.237 34.9935 12.6349 34.9935 13.1342H34.9949Z" fill="#171454"/>
<path d="M45.3291 1.31871C45.3291 0.955651 45.4576 0.645447 45.7174 0.386712C45.9758 0.129368 46.2873 0 46.6533 0C47.0192 0 47.3531 0.129368 47.6115 0.386712C47.8699 0.644056 47.9998 0.95426 47.9998 1.31871C47.9998 1.68317 47.8699 1.99337 47.6115 2.25072C47.3531 2.50806 47.0332 2.63743 46.6533 2.63743C46.2733 2.63743 45.9758 2.50945 45.7174 2.25072C45.459 1.99337 45.3291 1.68317 45.3291 1.31871ZM45.6029 16.2461V4.68227H47.7023V16.2474H45.6029V16.2461Z" fill="#171454"/>
</svg>
