<svg width="116" height="60" viewBox="0 0 116 60" fill="none" xmlns="http://www.w3.org/2000/svg">
<g clip-path="url(#clip0_139_589)">
<path d="M53.9998 33.2265C54.1639 34.0875 54.5601 34.7451 55.1864 35.1954C55.8128 35.6476 56.6599 35.8718 57.7296 35.8718C58.7993 35.8718 59.6803 35.657 60.3803 35.2255C61.0783 34.7941 61.4273 34.2401 61.4273 33.5637C61.4273 33.0098 61.2481 32.5746 60.8878 32.2562C60.5274 31.9377 60.0822 31.6966 59.5483 31.5327C59.0144 31.3687 58.2843 31.2048 57.3598 31.0409C56.1467 30.8355 55.1619 30.6057 54.4016 30.3475C53.6413 30.0913 52.9885 29.6711 52.4452 29.0852C51.9 28.5011 51.6283 27.6758 51.6283 26.6075C51.6283 25.7258 51.8905 24.925 52.415 24.2072C52.9395 23.4893 53.6621 22.9297 54.5865 22.5303C55.5109 22.1309 56.558 21.9293 57.7296 21.9293C59.4558 21.9293 60.8783 22.3249 61.9971 23.1144C63.1159 23.9038 63.7894 24.9759 64.0158 26.3306L61.1802 26.9467C61.0368 26.0856 60.667 25.4243 60.0709 24.9627C59.4747 24.5011 58.6936 24.2712 57.7296 24.2712C56.7655 24.2712 56.009 24.4766 55.4034 24.8873C54.7978 25.2981 54.4941 25.8313 54.4941 26.487C54.4941 26.9994 54.6639 27.4045 55.0016 27.7022C55.3411 27.9999 55.7675 28.2204 56.2807 28.3636C56.7938 28.5067 57.5032 28.6612 58.4069 28.8252C59.6388 29.0513 60.6463 29.2981 61.4273 29.5637C62.2084 29.8313 62.8763 30.2759 63.4309 30.9015C63.9856 31.527 64.2629 32.3937 64.2629 33.5016C64.2629 34.3833 63.9743 35.1841 63.4007 35.9019C62.8253 36.6198 62.0405 37.185 61.0444 37.5939C60.0482 38.0046 58.9427 38.21 57.7315 38.21C56.5203 38.21 55.426 38.031 54.511 37.6711C53.596 37.3132 52.8527 36.7988 52.2773 36.1318C51.7019 35.4648 51.3321 34.6904 51.168 33.8087L54.0035 33.2246L53.9998 33.2265Z" fill="#171454"/>
<path d="M68.9747 31.0108V28.7329H80.5924L79.9151 29.626C79.8736 28.6613 79.6227 27.7795 79.1605 26.9788C78.6983 26.178 78.0719 25.5525 77.2814 25.1022C76.4909 24.6519 75.6024 24.4258 74.6157 24.4258C73.629 24.4258 72.7253 24.6726 71.9046 25.1644C71.082 25.6561 70.4406 26.3382 69.9784 27.2105C69.5162 28.0829 69.286 29.0419 69.286 30.0876C69.286 31.1333 69.5218 32.0885 69.9954 32.9496C70.467 33.8106 71.1292 34.4927 71.9838 34.9957C72.8366 35.4988 73.7856 35.7494 74.8345 35.7494C75.9438 35.7494 76.9343 35.4781 77.8078 34.9336C78.6813 34.3909 79.3435 33.6467 79.7944 32.7028L82.1979 33.7484C81.5206 35.1031 80.5339 36.1846 79.2397 36.9948C77.9455 37.805 76.4551 38.2101 74.7722 38.2101C73.2309 38.2101 71.8291 37.8558 70.567 37.1493C69.303 36.4409 68.3068 35.4668 67.5786 34.2251C66.8485 32.9835 66.4844 31.6043 66.4844 30.0857C66.4844 28.5671 66.8391 27.1879 67.5484 25.9463C68.2578 24.7046 69.2332 23.7249 70.4764 23.007C71.7197 22.2892 73.1007 21.9293 74.6213 21.9293C76.2438 21.9293 77.7022 22.3288 78.9964 23.1295C80.2906 23.9303 81.266 25.0268 81.9244 26.423C82.5809 27.8191 82.8281 29.3471 82.6639 31.0089H68.9822L68.9747 31.0108Z" fill="#171454"/>
<path d="M85.8926 37.9029V22.2401H88.7282V25.9029L88.2961 25.3791C88.6866 24.5783 89.2262 23.8925 89.9148 23.3178C90.6034 22.7432 91.3788 22.3437 92.241 22.1176C93.1032 21.8915 94.0182 21.8821 94.9841 22.0875V24.795C93.8541 24.5293 92.807 24.5387 91.8411 24.8251C90.8751 25.1134 90.1148 25.6259 89.5601 26.3645C89.0055 27.103 88.7282 27.9848 88.7282 29.0117V37.9047H85.8926V37.9029Z" fill="#171454"/>
<path d="M95.5996 33.8727C95.5996 32.3956 96.1279 31.2726 97.1862 30.5039C98.2446 29.7352 99.6049 29.2679 101.269 29.104L104.504 28.7649C105.121 28.7027 105.578 28.5388 105.876 28.2731C106.174 28.0075 106.323 27.6174 106.323 27.1031C106.323 26.242 106.01 25.5637 105.384 25.072C104.757 24.5802 103.94 24.3334 102.933 24.3334C101.925 24.3334 101.027 24.5897 100.299 25.1021C99.569 25.6146 99.0917 26.3946 98.8672 27.4403L96.0637 26.7319C96.2694 25.7465 96.6957 24.8968 97.3428 24.177C97.9899 23.4592 98.7918 22.9052 99.7464 22.5152C100.701 22.1252 101.765 21.9312 102.935 21.9312C104.784 21.9312 106.283 22.4135 107.434 23.3782C108.585 24.3428 109.161 25.7164 109.161 27.5025V37.9048H106.325V34.796L106.632 34.8883C106.016 35.934 105.189 36.7498 104.152 37.3358C103.114 37.9198 101.948 38.2119 100.654 38.2119C99.6671 38.2119 98.7936 38.0367 98.0352 37.6881C97.2749 37.3395 96.6787 36.8308 96.2486 36.1638C95.8166 35.4969 95.6015 34.7338 95.6015 33.8709L95.5996 33.8727ZM98.4352 33.6881C98.4352 34.3645 98.6918 34.8996 99.2049 35.2877C99.7181 35.6777 100.395 35.8718 101.239 35.8718C102.184 35.8718 103.04 35.6457 103.812 35.1954C104.582 34.7451 105.193 34.1497 105.646 33.4111C106.097 32.6726 106.323 31.8925 106.323 31.0729V29.8106L106.631 29.9029C106.487 30.2307 106.25 30.4681 105.921 30.6113C105.593 30.7545 105.078 30.8676 104.38 30.9505L101.267 31.3198C100.405 31.4234 99.7162 31.674 99.203 32.0734C98.6899 32.4728 98.4333 33.0117 98.4333 33.6881H98.4352Z" fill="#171454"/>
<path d="M112.393 17.6843C112.393 17.1926 112.566 16.7724 112.917 16.422C113.266 16.0734 113.687 15.8982 114.181 15.8982C114.675 15.8982 115.126 16.0734 115.475 16.422C115.824 16.7705 116 17.1907 116 17.6843C116 18.178 115.824 18.5981 115.475 18.9467C115.126 19.2953 114.694 19.4705 114.181 19.4705C113.668 19.4705 113.266 19.2972 112.917 18.9467C112.568 18.5981 112.393 18.178 112.393 17.6843ZM112.762 37.9029V22.2402H115.598V37.9048H112.762V37.9029Z" fill="#171454"/>
<path d="M22.407 38.8997C21.9976 38.1988 22.2372 37.302 22.939 36.9007C23.6352 36.4975 24.5313 36.7386 24.9351 37.4395C25.3388 38.1348 25.0973 39.0297 24.4031 39.4329C24.1691 39.5705 23.922 39.627 23.6748 39.627C23.1673 39.627 22.673 39.367 22.407 38.8997ZM26.6387 36.4579C26.2349 35.757 26.4764 34.8601 27.1726 34.4588C27.8744 34.0556 28.7649 34.2968 29.1743 34.9977C29.578 35.6929 29.3365 36.5879 28.6347 36.9911C28.4064 37.1268 28.1536 37.1852 27.9065 37.1852C27.399 37.1852 26.9047 36.9251 26.6387 36.4579ZM30.8703 34.0161C30.4666 33.3152 30.7081 32.4259 31.4024 32.017C32.1042 31.6138 33.0022 31.855 33.4041 32.5559C33.8078 33.2511 33.5663 34.1461 32.8645 34.5493C32.6362 34.6849 32.3834 34.7433 32.1363 34.7433C31.6288 34.7433 31.142 34.4833 30.8685 34.0161H30.8703ZM35.2511 24.9798C35.2511 24.1753 35.9076 23.5196 36.7132 23.5196C37.5263 23.5196 38.1753 24.1753 38.1753 24.9798C38.1753 25.7843 37.5244 26.44 36.7132 26.44C35.9076 26.44 35.2511 25.7843 35.2511 24.9798Z" fill="url(#paint0_linear_139_589)"/>
<path d="M19.0925 40.9685C17.5719 40.9685 16.0739 40.5672 14.757 39.8078L4.50144 33.8955C1.82623 32.3524 0.166016 29.4791 0.166016 26.3948V14.5681C0.166016 11.4838 1.82812 8.61049 4.50144 7.06928L14.757 1.15689C17.4304 -0.384327 20.7527 -0.384327 23.4279 1.15689L33.6835 7.06928C36.3587 8.61049 38.0189 11.4857 38.0189 14.5681V20.4805C38.0189 21.1983 37.436 21.7786 36.7191 21.7786C36.0021 21.7786 35.4192 21.1965 35.4192 20.4805V14.5681C35.4192 12.4089 34.257 10.3966 32.3836 9.31704L22.128 3.40465C20.2546 2.32505 17.9284 2.32505 16.0569 3.40465L5.80131 9.31892C3.9298 10.3985 2.76576 12.4108 2.76576 14.57V26.3966C2.76576 28.5558 3.92791 30.5681 5.80131 31.6477L16.0569 37.5601C16.9795 38.0914 18.0284 38.3721 19.0925 38.3721C19.8113 38.3721 20.3923 38.9525 20.3923 39.6703C20.3923 40.3882 19.8094 40.9685 19.0925 40.9685Z" fill="url(#paint1_linear_139_589)"/>
<path d="M19.0925 60C17.5926 60 16.0947 59.6138 14.757 58.8432L4.50144 52.9308C1.82623 51.3895 0.166016 48.5144 0.166016 45.4319V39.6703C0.166016 38.9524 0.748978 38.3721 1.46589 38.3721C2.1828 38.3721 2.76576 38.9524 2.76576 39.6703V45.4319C2.76576 47.5912 3.9298 49.6034 5.80131 50.683L16.0569 56.5954C17.9284 57.675 20.2546 57.675 22.128 56.5954L32.3836 50.683C34.2551 49.6034 35.4192 47.5912 35.4192 45.4319V33.6053C35.4192 31.4461 34.257 29.4338 32.3836 28.3542L22.128 22.4418C21.2055 21.9105 20.1565 21.6298 19.0925 21.6298C18.3737 21.6298 17.7926 21.0476 17.7926 20.3316C17.7926 19.6156 18.3756 19.0334 19.0925 19.0334C20.6131 19.0334 22.111 19.4348 23.4279 20.1941L33.6835 26.1065C36.3587 27.6477 38.0189 30.5229 38.0189 33.6053V45.4319C38.0189 48.5163 36.3568 51.3895 33.6835 52.9308L23.4279 58.8432C22.0903 59.6138 20.5904 60 19.0925 60Z" fill="url(#paint2_linear_139_589)"/>
<path d="M0 35.1465C0 34.3344 0.65654 33.6863 1.46212 33.6863C2.27525 33.6863 2.93179 34.3363 2.93179 35.1465C2.93179 35.951 2.27525 36.6067 1.46212 36.6067C0.65654 36.6067 0 35.951 0 35.1465H0ZM4.71275 27.48C4.30901 26.7847 4.5505 25.8898 5.24666 25.4866C5.94848 25.0834 6.83895 25.3246 7.24835 26.0198C7.65208 26.7207 7.4106 27.6175 6.70878 28.0189C6.4805 28.1489 6.22769 28.2129 5.98055 28.2129C5.47305 28.2129 4.98631 27.9529 4.71275 27.48ZM8.97082 25.025C8.56143 24.3297 8.80103 23.4348 9.50285 23.0316C10.199 22.6284 11.0951 22.8695 11.4989 23.5629C11.9026 24.2638 11.6687 25.1606 10.9669 25.5619C10.7329 25.692 10.4858 25.756 10.2386 25.756C9.73113 25.756 9.23683 25.496 8.97082 25.0231V25.025ZM13.2214 22.5718C12.8176 21.8766 13.0591 20.9816 13.7534 20.5784C14.4552 20.1752 15.3532 20.4164 15.7551 21.1098C16.1588 21.8107 15.9173 22.7075 15.2212 23.1088C14.9872 23.2388 14.7344 23.3029 14.4873 23.3029C13.9798 23.3029 13.493 23.0429 13.2195 22.57L13.2214 22.5718Z" fill="url(#paint3_linear_139_589)"/>
</g>
<defs>
<linearGradient id="paint0_linear_139_589" x1="17.6282" y1="31.5742" x2="38.1791" y2="31.5742" gradientUnits="userSpaceOnUse">
<stop stop-color="#2176FF"/>
<stop offset="1" stop-color="#42CDB2"/>
</linearGradient>
<linearGradient id="paint1_linear_139_589" x1="0.166016" y1="20.4843" x2="38.0189" y2="20.4843" gradientUnits="userSpaceOnUse">
<stop stop-color="#2176FF"/>
<stop offset="1" stop-color="#42CDB2"/>
</linearGradient>
<linearGradient id="paint2_linear_139_589" x1="0.166016" y1="39.5158" x2="38.0189" y2="39.5158" gradientUnits="userSpaceOnUse">
<stop stop-color="#1A0046"/>
<stop offset="1" stop-color="#3A3CE6"/>
</linearGradient>
<linearGradient id="paint3_linear_139_589" x1="0" y1="28.4955" x2="20.5546" y2="28.4955" gradientUnits="userSpaceOnUse">
<stop stop-color="#3A3CE6"/>
<stop offset="1" stop-color="#1A0046"/>
</linearGradient>
<clipPath id="clip0_139_589">
<rect width="116" height="60" fill="white"/>
</clipPath>
</defs>
</svg>
