<svg width="101" height="52" viewBox="0 0 101 52" fill="none" xmlns="http://www.w3.org/2000/svg">
<g clip-path="url(#clip0_609_202)">
<path d="M47.0184 28.7963C47.1613 29.5425 47.5062 30.1124 48.0516 30.5027C48.5969 30.8946 49.3345 31.0889 50.2659 31.0889C51.1973 31.0889 51.9644 30.9028 52.5738 30.5288C53.1816 30.1549 53.4855 29.6748 53.4855 29.0886C53.4855 28.6085 53.3294 28.2313 53.0157 27.9553C52.7019 27.6794 52.3143 27.4704 51.8494 27.3283C51.3845 27.1862 50.7488 27.0442 49.9439 26.9021C48.8877 26.7241 48.0302 26.5249 47.3682 26.3012C46.7062 26.0791 46.1379 25.715 45.6648 25.2072C45.1901 24.701 44.9535 23.9857 44.9535 23.0599C44.9535 22.2957 45.1819 21.6017 45.6385 20.9796C46.0952 20.3574 46.7243 19.8724 47.5292 19.5263C48.3341 19.1801 49.2458 19.0054 50.2659 19.0054C51.7689 19.0054 53.0075 19.3483 53.9815 20.0325C54.9556 20.7167 55.5421 21.6458 55.7392 22.8198L53.2703 23.3538C53.1454 22.6076 52.8235 22.0344 52.3044 21.6344C51.7853 21.2343 51.1053 21.0351 50.2659 21.0351C49.4265 21.0351 48.7678 21.2131 48.2405 21.569C47.7132 21.925 47.4487 22.3871 47.4487 22.9554C47.4487 23.3995 47.5966 23.7506 47.8906 24.0086C48.1863 24.2666 48.5575 24.4577 49.0043 24.5818C49.4511 24.7059 50.0688 24.8398 50.8556 24.9818C51.9282 25.1778 52.8054 25.3917 53.4855 25.6219C54.1655 25.8538 54.747 26.2392 55.23 26.7813C55.7129 27.3234 55.9544 28.0745 55.9544 29.0347C55.9544 29.7989 55.703 30.4929 55.2037 31.115C54.7027 31.7372 54.0193 32.227 53.152 32.5814C52.2847 32.9374 51.3221 33.1153 50.2675 33.1153C49.2129 33.1153 48.2602 32.9602 47.4635 32.6483C46.6668 32.3381 46.0196 31.8923 45.5186 31.3142C45.0176 30.7362 44.6956 30.0651 44.5527 29.3009L47.0216 28.7947L47.0184 28.7963Z" fill="#171454"/>
<path d="M60.0579 26.876V24.9018H70.1734L69.5837 25.6758C69.5475 24.8398 69.3291 24.0756 68.9266 23.3816C68.5242 22.6876 67.9788 22.1455 67.2905 21.7552C66.6023 21.3649 65.8286 21.169 64.9695 21.169C64.1104 21.169 63.3235 21.3829 62.609 21.8091C61.8928 22.2353 61.3343 22.8264 60.9318 23.5824C60.5294 24.3385 60.329 25.1696 60.329 26.0759C60.329 26.9821 60.5343 27.81 60.9466 28.5563C61.3573 29.3025 61.9339 29.8936 62.678 30.3296C63.4205 30.7656 64.2467 30.9828 65.16 30.9828C66.1259 30.9828 66.9883 30.7476 67.7488 30.2757C68.5094 29.8054 69.086 29.1604 69.4785 28.3423L71.5713 29.2486C70.9816 30.4227 70.1225 31.36 68.9956 32.0621C67.8687 32.7643 66.5711 33.1153 65.1058 33.1153C63.7638 33.1153 62.5433 32.8084 61.4443 32.196C60.3438 31.582 59.4764 30.7378 58.8424 29.6617C58.2067 28.5856 57.8896 27.3904 57.8896 26.0742C57.8896 24.7581 58.1985 23.5628 58.8161 22.4867C59.4337 21.4106 60.283 20.5615 61.3655 19.9394C62.448 19.3173 63.6504 19.0054 64.9744 19.0054C66.3871 19.0054 67.6568 19.3515 68.7837 20.0455C69.9106 20.7395 70.7598 21.6899 71.3331 22.8999C71.9047 24.1098 72.1199 25.4341 71.977 26.8744H60.0645L60.0579 26.876Z" fill="#171454"/>
<path d="M74.7871 32.8491V19.2747H77.256V22.4491L76.8798 21.9952C77.2199 21.3012 77.6897 20.7068 78.2892 20.2088C78.8888 19.7107 79.5639 19.3645 80.3146 19.1686C81.0653 18.9726 81.862 18.9645 82.703 19.1425V21.489C81.7191 21.2587 80.8074 21.2669 79.9664 21.5151C79.1253 21.7649 78.4634 22.2091 77.9804 22.8492C77.4975 23.4893 77.256 24.2535 77.256 25.1434V32.8507H74.7871V32.8491Z" fill="#171454"/>
<path d="M83.2393 29.3565C83.2393 28.0763 83.6992 27.103 84.6207 26.4368C85.5423 25.7706 86.7266 25.3656 88.1754 25.2236L90.9926 24.9296C91.5297 24.8758 91.9272 24.7337 92.1868 24.5035C92.4463 24.2732 92.5761 23.9352 92.5761 23.4894C92.5761 22.7432 92.3034 22.1553 91.758 21.7291C91.2127 21.303 90.5014 21.089 89.6242 21.089C88.7471 21.089 87.9652 21.3111 87.3311 21.7553C86.6954 22.1994 86.2798 22.8754 86.0843 23.7817L83.6433 23.1677C83.8224 22.3137 84.1936 21.5773 84.7571 20.9535C85.3205 20.3314 86.0186 19.8513 86.8498 19.5133C87.681 19.1753 88.6074 19.0071 89.6259 19.0071C91.2357 19.0071 92.5416 19.4251 93.5436 20.2612C94.5456 21.0972 95.0466 22.2876 95.0466 23.8356V32.8509H92.5777V30.1566L92.8455 30.2366C92.3083 31.1429 91.5888 31.8499 90.6854 32.3577C89.7819 32.8639 88.7668 33.117 87.6399 33.117C86.7808 33.117 86.0203 32.9652 85.3599 32.6631C84.6979 32.361 84.1789 31.9201 83.8043 31.3421C83.4282 30.764 83.2409 30.1027 83.2409 29.3548L83.2393 29.3565ZM85.7082 29.1964C85.7082 29.7826 85.9316 30.2464 86.3784 30.5828C86.8252 30.9208 87.4149 31.089 88.1491 31.089C88.9721 31.089 89.7179 30.893 90.3897 30.5028C91.0599 30.1125 91.5921 29.5965 91.9864 28.9564C92.379 28.3163 92.5761 27.6403 92.5761 26.93V25.8359L92.8438 25.9159C92.719 26.2 92.512 26.4058 92.2262 26.5299C91.9404 26.654 91.4919 26.752 90.8842 26.8238L88.1738 27.1439C87.4231 27.2337 86.8235 27.4509 86.3767 27.797C85.9299 28.1432 85.7065 28.6102 85.7065 29.1964H85.7082Z" fill="#171454"/>
<path d="M97.8604 15.3264C97.8604 14.9003 98.0115 14.5361 98.317 14.2324C98.6209 13.9303 98.9872 13.7784 99.4176 13.7784C99.848 13.7784 100.241 13.9303 100.544 14.2324C100.848 14.5345 101.001 14.8986 101.001 15.3264C101.001 15.7543 100.848 16.1184 100.544 16.4205C100.241 16.7226 99.8644 16.8744 99.4176 16.8744C98.9708 16.8744 98.6209 16.7242 98.317 16.4205C98.0131 16.1184 97.8604 15.7543 97.8604 15.3264ZM98.1823 32.8492V19.2748H100.651V32.8508H98.1823V32.8492Z" fill="#171454"/>
<path d="M19.5101 33.713C19.1536 33.1055 19.3622 32.3283 19.9733 31.9805C20.5794 31.631 21.3597 31.84 21.7112 32.4475C22.0627 33.05 21.8525 33.8257 21.248 34.1751C21.0443 34.2943 20.8291 34.3433 20.6139 34.3433C20.1721 34.3433 19.7417 34.1179 19.5101 33.713ZM23.1945 31.5967C22.843 30.9893 23.0533 30.212 23.6594 29.8642C24.2705 29.5148 25.0458 29.7238 25.4023 30.3312C25.7538 30.9338 25.5435 31.7094 24.9325 32.0588C24.7337 32.1764 24.5136 32.227 24.2984 32.227C23.8565 32.227 23.4261 32.0017 23.1945 31.5967ZM26.879 29.4805C26.5275 28.873 26.7377 28.1023 27.3422 27.748C27.9533 27.3985 28.7352 27.6075 29.0851 28.215C29.4366 28.8175 29.2263 29.5932 28.6153 29.9426C28.4165 30.0602 28.1964 30.1108 27.9812 30.1108C27.5393 30.1108 27.1155 29.8854 26.8774 29.4805H26.879ZM30.6932 21.649C30.6932 20.9518 31.2649 20.3835 31.9663 20.3835C32.6743 20.3835 33.2393 20.9518 33.2393 21.649C33.2393 22.3463 32.6726 22.9146 31.9663 22.9146C31.2649 22.9146 30.6932 22.3463 30.6932 21.649Z" fill="#171454"/>
<path d="M16.6236 35.5059C15.2996 35.5059 13.9954 35.1581 12.8488 34.5L3.91934 29.3759C1.59006 28.0386 0.144531 25.5484 0.144531 22.8753V12.6256C0.144531 9.9525 1.59171 7.46231 3.91934 6.12659L12.8488 1.00252C15.1764 -0.333198 18.0691 -0.333198 20.3984 1.00252L29.3279 6.12659C31.6571 7.46231 33.1027 9.95413 33.1027 12.6256V17.7496C33.1027 18.3718 32.5951 18.8747 31.9709 18.8747C31.3467 18.8747 30.8391 18.3701 30.8391 17.7496V12.6256C30.8391 10.7543 29.8272 9.01031 28.1961 8.07465L19.2666 2.95058C17.6355 2.01493 15.6101 2.01493 13.9806 2.95058L5.05113 8.07628C3.42162 9.01194 2.4081 10.7559 2.4081 12.6272V22.877C2.4081 24.7483 3.41998 26.4922 5.05113 27.4279L13.9806 32.552C14.7838 33.0124 15.6971 33.2557 16.6236 33.2557C17.2494 33.2557 17.7554 33.7587 17.7554 34.3808C17.7554 35.003 17.2478 35.5059 16.6236 35.5059Z" fill="#171454"/>
<path d="M16.6236 52C15.3177 52 14.0134 51.6652 12.8488 50.9973L3.91934 45.8733C1.59006 44.5376 0.144531 42.0457 0.144531 39.3743V34.3809C0.144531 33.7587 0.65211 33.2558 1.27632 33.2558C1.90052 33.2558 2.4081 33.7587 2.4081 34.3809V39.3743C2.4081 41.2456 3.42162 42.9896 5.05113 43.9252L13.9806 49.0493C15.6101 49.9849 17.6355 49.9849 19.2666 49.0493L28.1961 43.9252C29.8256 42.9896 30.8391 41.2456 30.8391 39.3743V29.1245C30.8391 27.2532 29.8272 25.5093 28.1961 24.5736L19.2666 19.4495C18.4634 18.9891 17.5501 18.7458 16.6236 18.7458C15.9978 18.7458 15.4918 18.2412 15.4918 17.6207C15.4918 17.0002 15.9994 16.4956 16.6236 16.4956C17.9476 16.4956 19.2518 16.8434 20.3984 17.5015L29.3279 22.6255C31.6571 23.9613 33.1027 26.4531 33.1027 29.1245V39.3743C33.1027 42.0474 31.6555 44.5376 29.3279 45.8733L20.3984 50.9973C19.2338 51.6652 17.9279 52 16.6236 52Z" fill="#171454"/>
<path d="M0 30.4603C0 29.7565 0.571642 29.1948 1.27305 29.1948C1.98104 29.1948 2.55268 29.7582 2.55268 30.4603C2.55268 31.1576 1.98104 31.7258 1.27305 31.7258C0.571642 31.7258 0 31.1576 0 30.4603H0ZM4.10334 23.816C3.75181 23.2135 3.96207 22.4378 4.56821 22.0884C5.17928 21.7389 5.95461 21.9479 6.31106 22.5505C6.66259 23.1579 6.45233 23.9352 5.84126 24.283C5.6425 24.3957 5.42239 24.4512 5.2072 24.4512C4.76533 24.4512 4.34153 24.2259 4.10334 23.816ZM7.8108 21.6883C7.45435 21.0858 7.66296 20.3101 8.27403 19.9607C8.88017 19.6113 9.66043 19.8203 10.012 20.4212C10.3635 21.0286 10.1598 21.8059 9.54873 22.1537C9.34504 22.2664 9.12985 22.3219 8.91466 22.3219C8.47279 22.3219 8.04242 22.0965 7.8108 21.6867V21.6883ZM11.5117 19.5623C11.1602 18.9597 11.3704 18.1841 11.9749 17.8346C12.586 17.4852 13.3679 17.6942 13.7178 18.2951C14.0693 18.9026 13.859 19.6798 13.2529 20.0276C13.0492 20.1403 12.8291 20.1958 12.6139 20.1958C12.172 20.1958 11.7482 19.9705 11.5101 19.5606L11.5117 19.5623Z" fill="#171454"/>
</g>
<defs>
<clipPath id="clip0_609_202">
<rect width="101" height="52" fill="white"/>
</clipPath>
</defs>
</svg>
